<svg width="62" height="70" viewBox="0 0 62 70" fill="none" xmlns="http://www.w3.org/2000/svg">
<path fill-rule="evenodd" clip-rule="evenodd" d="M33.2151 10.479C35.4213 7.81455 39.1735 5.77332 42.3943 5.55518C42.9419 9.20134 41.4442 12.754 39.4634 15.2627C37.4182 17.896 33.9076 19.9528 30.4774 19.9528H30.2198C29.5756 16.4781 31.2182 12.8942 33.2151 10.479ZM36.7793 21.0225C38.6182 20.3275 40.6394 19.5636 43.5889 19.5636C47.6793 19.5636 52.0113 21.7918 55.1032 25.6405C44.99 31.1721 46.6325 45.6009 56.8585 49.4652C55.4575 52.5816 54.7811 53.9683 52.9614 56.7263C50.4331 60.5595 46.8741 65.3431 42.4455 65.3899H42.365C40.5961 65.3899 39.4207 64.8522 38.1548 64.2731C36.6777 63.5975 35.0775 62.8656 32.2679 62.8656H32.1874C29.3358 62.8824 27.6878 63.6168 26.1737 64.2915C24.8747 64.8705 23.6743 65.4054 21.897 65.4054H21.8164C17.3879 65.3587 14.0061 61.0425 11.4777 57.1938C4.40813 46.4423 3.66735 33.821 8.03151 27.1208C11.1396 22.3683 16.0351 19.5791 20.6248 19.5791C23.0807 19.5791 25.0589 20.281 26.9419 20.949C28.652 21.5557 30.2835 22.1346 32.1229 22.1346C33.8371 22.1346 35.2448 21.6025 36.7793 21.0225Z" fill="white"/>
<mask id="mask0_213_502" style="mask-type:luminance" maskUnits="userSpaceOnUse" x="5" y="5" width="52" height="61">
<path fill-rule="evenodd" clip-rule="evenodd" d="M33.2151 10.479C35.4213 7.81455 39.1735 5.77332 42.3943 5.55518C42.9419 9.20134 41.4442 12.754 39.4634 15.2627C37.4182 17.896 33.9076 19.9528 30.4774 19.9528H30.2198C29.5756 16.4781 31.2182 12.8942 33.2151 10.479ZM36.7793 21.0225C38.6182 20.3275 40.6394 19.5636 43.5889 19.5636C47.6793 19.5636 52.0113 21.7918 55.1032 25.6405C44.99 31.1721 46.6325 45.6009 56.8585 49.4652C55.4575 52.5816 54.7811 53.9683 52.9614 56.7263C50.4331 60.5595 46.8741 65.3431 42.4455 65.3899H42.365C40.5961 65.3899 39.4207 64.8522 38.1548 64.2731C36.6777 63.5975 35.0775 62.8656 32.2679 62.8656H32.1874C29.3358 62.8824 27.6878 63.6168 26.1737 64.2915C24.8747 64.8705 23.6743 65.4054 21.897 65.4054H21.8164C17.3879 65.3587 14.0061 61.0425 11.4777 57.1938C4.40813 46.4423 3.66735 33.821 8.03151 27.1208C11.1396 22.3683 16.0351 19.5791 20.6248 19.5791C23.0807 19.5791 25.0589 20.281 26.9419 20.949C28.652 21.5557 30.2835 22.1346 32.1229 22.1346C33.8371 22.1346 35.2448 21.6025 36.7793 21.0225Z" fill="white"/>
</mask>
<g mask="url(#mask0_213_502)">
<rect y="5.55566" width="62" height="60" fill="white"/>
</g>
</svg>
