<svg width="62" height="70" viewBox="0 0 62 70" fill="none" xmlns="http://www.w3.org/2000/svg">
<path fill-rule="evenodd" clip-rule="evenodd" d="M32.5058 10.4792C34.6559 7.81467 38.3128 5.77344 41.4517 5.5553C41.9854 9.20146 40.5257 12.7541 38.5953 15.2628C36.6021 17.8961 33.1806 19.953 29.8377 19.953H29.5865C28.9588 16.4782 30.5596 12.8944 32.5058 10.4792ZM35.9791 21.0227C37.7712 20.3277 39.7411 19.5637 42.6156 19.5637C46.6021 19.5637 50.8239 21.7919 53.8373 25.6407C43.981 31.1722 45.5819 45.601 55.548 49.4653C54.1826 52.5817 53.5234 53.9685 51.7499 56.7265C49.2859 60.5596 45.8173 65.3433 41.5013 65.39H41.4228C39.6989 65.39 38.5533 64.8524 37.3195 64.2733C35.88 63.5977 34.3205 62.8658 31.5822 62.8658H31.5037C28.7247 62.8825 27.1185 63.617 25.6429 64.2917C24.3769 64.8706 23.207 65.4056 21.4748 65.4056H21.3964C17.0803 65.3589 13.7844 61.0427 11.3204 57.194C4.43038 46.4425 3.70843 33.8211 7.96169 27.1209C10.9908 22.3685 15.762 19.5793 20.235 19.5793C22.6284 19.5793 24.5564 20.2811 26.3916 20.9492C28.0582 21.5559 29.6483 22.1347 31.441 22.1347C33.1116 22.1347 34.4835 21.6027 35.9791 21.0227Z" fill="white"/>
<mask id="mask0_1_1229" style="mask-type:luminance" maskUnits="userSpaceOnUse" x="5" y="5" width="51" height="61">
<path fill-rule="evenodd" clip-rule="evenodd" d="M32.7503 10.4915C34.9198 7.82032 38.6096 5.77399 41.7767 5.5553C42.3152 9.21058 40.8424 12.7721 38.8946 15.2871C36.8834 17.927 33.4312 19.989 30.0582 19.989H29.8048C29.1714 16.5055 30.7866 12.9127 32.7503 10.4915ZM36.2549 21.0614C38.0632 20.3646 40.0508 19.5988 42.9512 19.5988C46.9735 19.5988 51.2334 21.8325 54.2739 25.6909C44.3289 31.2363 45.9442 45.7012 56 49.5752C54.6223 52.6994 53.9572 54.0896 52.1677 56.8545C49.6815 60.6972 46.1817 65.4928 41.8268 65.5397H41.7477C40.0082 65.5397 38.8523 65.0007 37.6075 64.4202C36.155 63.7429 34.5814 63.0091 31.8185 63.0091H31.7393C28.9352 63.0259 27.3147 63.7622 25.8258 64.4386C24.5484 65.019 23.368 65.5553 21.6202 65.5553H21.541C17.1861 65.5085 13.8606 61.1815 11.3743 57.3231C4.42237 46.5447 3.69391 33.8918 7.98545 27.1749C11.0418 22.4105 15.8559 19.6144 20.3692 19.6144C22.7842 19.6144 24.7295 20.318 26.5812 20.9877C28.2628 21.5959 29.8672 22.1762 31.676 22.1762C33.3617 22.1762 34.7459 21.6428 36.2549 21.0614Z" fill="white"/>
</mask>
<g mask="url(#mask0_1_1229)">
<rect y="4" width="62" height="66" fill="white"/>
</g>
</svg>
