<svg width="62" height="62" viewBox="0 0 62 62" fill="none" xmlns="http://www.w3.org/2000/svg">
<path fill-rule="evenodd" clip-rule="evenodd" d="M22.3898 24.3271C21.5136 24.3271 20.6459 24.4997 19.8363 24.835C19.0267 25.1704 18.2911 25.6619 17.6715 26.2815C17.0519 26.9011 16.5604 27.6367 16.225 28.4463C15.8897 29.2559 15.7171 30.1236 15.7171 30.9998C15.7171 31.8761 15.8897 32.7438 16.225 33.5534C16.5604 34.363 17.0519 35.0986 17.6715 35.7182C18.2911 36.3378 19.0267 36.8293 19.8363 37.1647C20.6459 37.5 21.5136 37.6726 22.3898 37.6726H29.0626V31.1342C29.0616 31.0446 29.0616 30.9551 29.0626 30.8655V24.3271H22.3898ZM29.0626 20.4521H22.3898C20.6198 20.4521 18.9222 19.7489 17.6706 18.4973C16.4189 17.2457 15.7158 15.5481 15.7158 13.778C15.7158 12.008 16.4189 10.3104 17.6706 9.05879C18.9222 7.80716 20.6198 7.104 22.3898 7.104H29.0626V20.4521ZM32.9376 7.104V20.4521H39.6103C41.3577 20.4177 43.0218 19.6994 44.2454 18.4516C45.469 17.2037 46.1544 15.5257 46.1544 13.778C46.1544 12.0304 45.469 10.3524 44.2454 9.10453C43.0218 7.85665 41.3577 7.13838 39.6103 7.104H32.9376ZM39.6103 24.3245C37.8588 24.3243 36.1774 25.0127 34.929 26.2413C33.6807 27.4699 32.9654 29.14 32.9376 30.8913V31.1058C32.959 32.4207 33.3684 33.6999 34.1145 34.7829C34.8606 35.8659 35.9101 36.7042 37.1311 37.1927C38.3521 37.6811 39.6902 37.7979 40.9774 37.5283C42.2645 37.2587 43.4433 36.6148 44.3657 35.6774C45.2881 34.74 45.9129 33.551 46.1617 32.2597C46.4105 30.9683 46.2722 29.6322 45.7641 28.4193C45.256 27.2063 44.4008 26.1705 43.306 25.442C42.2111 24.7134 40.9254 24.3247 39.6103 24.3245ZM22.3898 41.5476C21.0695 41.5471 19.7786 41.9381 18.6805 42.6713C17.5824 43.4045 16.7264 44.4469 16.2208 45.6666C15.7152 46.8863 15.5826 48.2286 15.8399 49.5236C16.0971 50.8187 16.7327 52.0084 17.6662 52.9422C18.5996 53.876 19.789 54.512 21.084 54.7698C22.379 55.0276 23.7213 54.8955 24.9412 54.3904C26.1611 53.8852 27.2038 53.0296 27.9374 51.9318C28.671 50.834 29.0626 49.5433 29.0626 48.2229V41.5476H22.3898Z" fill="white"/>
</svg>
